<?xml version="1.0" encoding="UTF-8" standalone="no"?>
<!DOCTYPE svg PUBLIC "-//W3C//DTD SVG 1.1//EN" "http://www.w3.org/Graphics/SVG/1.1/DTD/svg11.dtd">
<svg width="100%" height="100%" viewBox="0 0 1024 1024" version="1.1" xmlns="http://www.w3.org/2000/svg" xmlns:xlink="http://www.w3.org/1999/xlink" xml:space="preserve" xmlns:serif="http://www.serif.com/" style="fill-rule:evenodd;clip-rule:evenodd;stroke-linejoin:round;stroke-miterlimit:2;">
    <g transform="matrix(7.05259e-16,-11.5177,12.0921,7.40429e-16,200.25,922.615)">
        <g transform="matrix(4.80553e-18,0.0747525,-0.0768206,4.48047e-18,73.574,-9.96513)">
            <ellipse cx="477.177" cy="496.261" rx="304.002" ry="299.529" style="fill:white;fill-opacity:0.11;"/>
        </g>
        <path d="M3.162,22.583L3.162,28.992L68.14,28.992L68.14,22.583L3.162,22.583ZM35.657,51.563C49.792,51.563 61.438,39.929 61.438,25.781C61.438,11.621 49.78,0 35.645,0C21.484,0 9.863,11.621 9.863,25.781C9.863,39.929 21.497,51.563 35.657,51.563ZM35.657,45.142C24.927,45.142 16.296,36.511 16.296,25.781C16.296,15.051 24.902,6.421 35.645,6.421C46.362,6.421 55.017,15.051 55.017,25.781C55.017,36.511 46.375,45.142 35.657,45.142Z" style="fill:rgb(245,245,245);fill-rule:nonzero;"/>
    </g>
</svg>
